<svg width="140" height="35" viewBox="0 0 140 35" fill="none" xmlns="http://www.w3.org/2000/svg">
<path opacity="0.1" fill-rule="evenodd" clip-rule="evenodd" d="M1.53711 23.3759C1.53711 23.3759 6.94939 22.5829 13.1028 24.488C24.8063 28.1114 25.474 21.4761 29.8137 18.2767C33.7841 15.3496 37.0724 17.1355 41.4931 20.7151C44.7537 23.3552 49.5054 27.787 54.4264 27.0735C58.9247 26.4213 62.1136 21.2236 68.3487 19.9017C73.2904 18.854 77.3064 21.7322 82.9968 20.7151C90.7163 19.3354 94.1644 11.2124 99.6816 11.2124C106.491 11.2124 111.285 4.34229 117.48 4.34229C123.638 4.34229 124.474 8.38208 131.21 11.2124C136.36 13.3762 138.838 11.2124 138.838 11.2124V34.3991H1.53711V23.3759Z" fill="url(#paint0_linear_2_2746)"/>
<path d="M1.53711 19.7745C1.53711 19.7745 6.94939 18.9929 13.1028 20.8705C24.8063 24.4414 25.474 17.9022 29.8137 14.7491C33.7841 11.8644 37.0724 13.6244 41.4931 17.1522C44.7537 19.7541 49.5054 24.1217 54.4264 23.4186C58.9247 22.7758 62.1136 17.6533 68.3487 16.3505C73.2904 15.318 77.3064 18.1546 82.9968 17.1522C90.7163 15.7924 94.1644 7.78703 99.6816 7.78703C106.491 7.78703 111.285 1 117.48 1C123.638 1 123.965 4.99768 130.701 7.78703C135.851 9.91951 138.838 7.78703 138.838 7.78703" stroke="#1B59F8" stroke-width="2" stroke-linecap="round" stroke-linejoin="round"/>
<defs>
<linearGradient id="paint0_linear_2_2746" x1="26.3509" y1="19.5933" x2="26.3509" y2="34.3991" gradientUnits="userSpaceOnUse">
<stop stop-color="#0062FF"/>
<stop offset="1" stop-color="white" stop-opacity="0.01"/>
</linearGradient>
</defs>
</svg>
